<?xml version="1.0" encoding="UTF-8"?>
<svg id="_Слой_1" data-name="Слой 1" xmlns="http://www.w3.org/2000/svg" viewBox="0 0 80.62 80.62">
  <defs>
    <style>
      .cls-1, .cls-2 {
        fill: none;
        stroke: #000;
        stroke-miterlimit: 10;
      }

      .cls-2 {
        stroke-width: 3px;
      }

      .cls-3 {
        fill: #231f20;
      }
    </style>
  </defs>
  <circle class="cls-2" cx="40.31" cy="40.31" r="38.81"/>
  <ellipse class="cls-1" cx="41.04" cy="40.21" rx="18.48" ry="36.93"/>
  <ellipse class="cls-1" cx="40.21" cy="40.82" rx="37.18" ry="18.32"/>
  <g>
    <path class="cls-3" d="M18.07,44.79c1.03,1.21,2.73,1.96,4.42,1.96,2.1,0,3.32-.97,3.32-2.47,0-1.6-1.27-2.28-3.54-2.28-.67,0-1.6,0-1.84,.02v-2.55c.29,.02,1.22,.02,1.84,.02,1.87,0,3.28-.65,3.28-2.13s-1.43-2.28-3.23-2.28c-1.63,0-2.96,.63-4.11,1.79l-1.43-1.77c1.22-1.46,3.16-2.55,5.81-2.55,3.44,0,5.76,1.65,5.76,4.36,0,2.16-1.82,3.42-3.47,3.71,1.55,.15,3.71,1.43,3.71,3.93,0,2.74-2.32,4.7-6,4.7-2.85,0-4.95-1.16-6.03-2.62l1.51-1.87Z"/>
    <path class="cls-3" d="M37.72,32.58c1.98,0,3.51,.73,4.59,1.79l-1.31,2.16c-.84-.9-1.75-1.43-3.28-1.43-2.65,0-4.21,2.5-4.21,5.33,0,.17,0,.32,.02,.46,.72-1.09,2.39-2.25,4.28-2.25,2.87,0,5.33,1.77,5.33,5.21,0,3.01-2.32,5.43-5.88,5.43-4.69,0-6.58-3.85-6.58-8.34s2.42-8.36,7.03-8.36Zm-.67,8.49c-1.36,0-2.68,.75-3.49,1.92,.17,1.75,1.1,3.78,3.56,3.78,2.1,0,3.2-1.5,3.2-2.81,0-1.99-1.53-2.89-3.28-2.89Z"/>
    <path class="cls-3" d="M51.45,32.58c4.47,0,6.38,4.27,6.38,8.34s-1.91,8.37-6.38,8.37-6.38-4.29-6.38-8.37,1.91-8.34,6.38-8.34Zm0,2.52c-2.61,0-3.54,2.74-3.54,5.82s.93,5.84,3.54,5.84,3.54-2.76,3.54-5.84-.93-5.82-3.54-5.82Z"/>
    <path class="cls-3" d="M61.73,31.02c1.34,0,2.42,1.14,2.42,2.5s-1.08,2.47-2.42,2.47-2.44-1.12-2.44-2.47,1.1-2.5,2.44-2.5Zm0,1.24c-.67,0-1.24,.56-1.24,1.26s.57,1.26,1.24,1.26,1.22-.58,1.22-1.26-.53-1.26-1.22-1.26Z"/>
  </g>
</svg>