<?xml-stylesheet type="text/css" href="../css/main.css"?>
<svg width="0" height="0" class="hidden">
  <symbol fill="none" xmlns="http://www.w3.org/2000/svg" viewBox="0 0 40 40" id="arrow">
    <circle cx="20" cy="20" r="19.5" class="circle"></circle>
    <path d="M16 18L19.5 21.5L23.5 18" stroke-width="1.3"></path>
  </symbol>
  <symbol fill="none" xmlns="http://www.w3.org/2000/svg" viewBox="0 0 243 54" id="logo">
    <mask id="path-1-outside-1_12_13" maskUnits="userSpaceOnUse" x="70.6267" y="39.0878" width="170" height="7" fill="black">
      <rect fill="white" x="70.6267" y="39.0878" width="170" height="7"></rect>
      <path d="M71.6267 45V40.1687H72.6913V45H71.6267Z"></path>
      <path d="M78.3825 45V40.1687H79.3629L81.6269 43.1436V40.1687H82.6747V45H81.7718L79.4303 41.9307V45H78.3825Z"></path>
      <path d="M89.444 45V41.1491H87.9751V40.1687H91.9743V41.1491H90.5053V45H89.444Z"></path>
      <path d="M97.278 45V40.1687H100.92V41.1154H98.3325V42.0958H100.61V43.0392H98.3325V44.0533H100.957V45H97.278Z"></path>
      <path d="M106.385 45V40.1687H108.592C109.203 40.1687 109.673 40.3326 110.001 40.6605C110.277 40.9368 110.415 41.3041 110.415 41.7623V41.7791C110.415 42.1542 110.323 42.4675 110.139 42.7191C109.954 42.9707 109.702 43.156 109.381 43.275L110.56 45H109.317L108.282 43.4536H107.447V45H106.385ZM107.447 42.5169H108.525C108.781 42.5169 108.981 42.4552 109.125 42.3316C109.268 42.2059 109.34 42.0396 109.34 41.833V41.8195C109.34 41.5949 109.266 41.4242 109.118 41.3074C108.972 41.1884 108.767 41.1289 108.505 41.1289H107.447V42.5169Z"></path>
      <path d="M115.857 45V40.1687H116.837L119.101 43.1436V40.1687H120.149V45H119.246L116.905 41.9307V45H115.857Z"></path>
      <path d="M125.379 45L127.451 40.135H128.428L130.5 45H129.388L128.947 43.9151H126.905L126.463 45H125.379ZM127.282 42.9785H128.566L127.926 41.4119L127.282 42.9785Z"></path>
      <path d="M136.235 45V41.1491H134.766V40.1687H138.765V41.1491H137.296V45H136.235Z"></path>
      <path d="M144.116 45V40.1687H145.18V45H144.116Z"></path>
      <path d="M154.244 44.8854C153.923 45.018 153.58 45.0842 153.216 45.0842C152.853 45.0842 152.51 45.0191 152.189 44.8888C151.87 44.7585 151.599 44.5822 151.377 44.3599C151.155 44.1353 150.979 43.8702 150.851 43.5647C150.723 43.2593 150.659 42.937 150.659 42.5978V42.5843C150.659 42.2452 150.723 41.9229 150.851 41.6174C150.982 41.3097 151.159 41.0435 151.384 40.8189C151.608 40.5943 151.881 40.4168 152.202 40.2866C152.524 40.1541 152.866 40.0878 153.23 40.0878C153.715 40.0878 154.154 40.199 154.547 40.4213C154.94 40.6437 155.246 40.9447 155.464 41.3243C155.682 41.7016 155.79 42.1171 155.79 42.5708V42.5843C155.79 42.9235 155.725 43.2469 155.595 43.5546C155.465 43.8601 155.287 44.1251 155.063 44.3498C154.838 44.5744 154.565 44.7529 154.244 44.8854ZM152.475 43.8983C152.7 44.0353 152.951 44.1038 153.23 44.1038C153.508 44.1038 153.759 44.0364 153.981 43.9017C154.206 43.7646 154.379 43.5816 154.5 43.3525C154.621 43.1234 154.682 42.8718 154.682 42.5978V42.5843C154.682 42.1643 154.543 41.8072 154.264 41.5129C153.988 41.2165 153.639 41.0682 153.216 41.0682C152.938 41.0682 152.688 41.1356 152.465 41.2704C152.243 41.4051 152.071 41.5871 151.95 41.8162C151.828 42.0453 151.768 42.2968 151.768 42.5708V42.5843C151.768 42.8583 151.83 43.111 151.953 43.3424C152.077 43.5737 152.251 43.759 152.475 43.8983Z"></path>
      <path d="M161.219 45V40.1687H162.199L164.463 43.1436V40.1687H165.511V45H164.608L162.267 41.9307V45H161.219Z"></path>
      <path d="M170.741 45L172.813 40.135H173.79L175.862 45H174.75L174.309 43.9151H172.267L171.826 45H170.741ZM172.644 42.9785H173.928L173.288 41.4119L172.644 42.9785Z"></path>
      <path d="M181.091 45V40.1687H182.153V44.0331H184.562V45H181.091Z"></path>
      <path d="M198.727 45.0842C198.356 45.0842 198.013 45.0213 197.696 44.8956C197.381 44.7698 197.114 44.5968 196.894 44.3767C196.674 44.1566 196.501 43.8938 196.375 43.5883C196.252 43.2806 196.19 42.9504 196.19 42.5978V42.5843C196.19 42.2452 196.254 41.9229 196.382 41.6174C196.51 41.3097 196.684 41.0435 196.904 40.8189C197.126 40.5943 197.395 40.4168 197.709 40.2866C198.026 40.1541 198.363 40.0878 198.72 40.0878C199.138 40.0878 199.492 40.1417 199.781 40.2495C200.071 40.3573 200.35 40.5235 200.617 40.7481L199.95 41.5567C199.745 41.3883 199.549 41.2647 199.36 41.1861C199.174 41.1075 198.949 41.0682 198.686 41.0682C198.302 41.0682 197.974 41.2153 197.703 41.5096C197.433 41.8038 197.298 42.1576 197.298 42.5708V42.5843C197.298 43.0268 197.435 43.3929 197.709 43.6827C197.983 43.9724 198.334 44.1173 198.761 44.1173C199.156 44.1173 199.489 44.0207 199.761 43.8275V43.1369H198.693V42.2205H200.792V44.3161C200.19 44.8282 199.502 45.0842 198.727 45.0842Z"></path>
      <path d="M206.298 45V40.1687H208.505C209.116 40.1687 209.585 40.3326 209.913 40.6605C210.189 40.9368 210.327 41.3041 210.327 41.7623V41.7791C210.327 42.1542 210.235 42.4675 210.051 42.7191C209.867 42.9707 209.614 43.156 209.293 43.275L210.472 45H209.229L208.195 43.4536H207.359V45H206.298ZM207.359 42.5169H208.437C208.693 42.5169 208.893 42.4552 209.037 42.3316C209.181 42.2059 209.253 42.0396 209.253 41.833V41.8195C209.253 41.5949 209.179 41.4242 209.03 41.3074C208.884 41.1884 208.68 41.1289 208.417 41.1289H207.359V42.5169Z"></path>
      <path d="M219.142 44.8854C218.821 45.018 218.478 45.0842 218.114 45.0842C217.75 45.0842 217.408 45.0191 217.087 44.8888C216.768 44.7585 216.497 44.5822 216.275 44.3599C216.052 44.1353 215.877 43.8702 215.749 43.5647C215.621 43.2593 215.557 42.937 215.557 42.5978V42.5843C215.557 42.2452 215.621 41.9229 215.749 41.6174C215.879 41.3097 216.057 41.0435 216.281 40.8189C216.506 40.5943 216.779 40.4168 217.1 40.2866C217.421 40.1541 217.764 40.0878 218.128 40.0878C218.613 40.0878 219.052 40.199 219.445 40.4213C219.838 40.6437 220.144 40.9447 220.361 41.3243C220.579 41.7016 220.688 42.1171 220.688 42.5708V42.5843C220.688 42.9235 220.623 43.2469 220.493 43.5546C220.363 43.8601 220.185 44.1251 219.96 44.3498C219.736 44.5744 219.463 44.7529 219.142 44.8854ZM217.373 43.8983C217.598 44.0353 217.849 44.1038 218.128 44.1038C218.406 44.1038 218.657 44.0364 218.879 43.9017C219.104 43.7646 219.277 43.5816 219.398 43.3525C219.519 43.1234 219.58 42.8718 219.58 42.5978V42.5843C219.58 42.1643 219.441 41.8072 219.162 41.5129C218.886 41.2165 218.536 41.0682 218.114 41.0682C217.836 41.0682 217.585 41.1356 217.363 41.2704C217.141 41.4051 216.969 41.5871 216.847 41.8162C216.726 42.0453 216.665 42.2968 216.665 42.5708V42.5843C216.665 42.8583 216.727 43.111 216.851 43.3424C216.974 43.5737 217.148 43.759 217.373 43.8983Z"></path>
      <path d="M228.131 45.0775C227.471 45.0775 226.958 44.8956 226.592 44.5317C226.226 44.1656 226.042 43.6321 226.042 42.9313V40.1687H227.104V42.901C227.104 43.2896 227.195 43.5861 227.377 43.7905C227.559 43.9949 227.815 44.0971 228.145 44.0971C228.475 44.0971 228.731 43.9982 228.913 43.8006C229.095 43.6029 229.186 43.3154 229.186 42.9381V40.1687H230.251V42.8943C230.251 43.6108 230.063 44.1543 229.688 44.5249C229.315 44.8933 228.796 45.0775 228.131 45.0775Z"></path>
      <path d="M235.817 45V40.1687H237.791C238.36 40.1687 238.81 40.3225 239.142 40.6302C239.475 40.9357 239.641 41.3389 239.641 41.8397V41.8532C239.641 42.125 239.59 42.3698 239.489 42.5877C239.388 42.8056 239.248 42.9841 239.068 43.1234C238.891 43.2626 238.684 43.3693 238.448 43.4435C238.215 43.5153 237.961 43.5513 237.687 43.5513H236.878V45H235.817ZM236.878 42.6045H237.721C237.981 42.6045 238.187 42.536 238.337 42.399C238.488 42.262 238.563 42.0868 238.563 41.8734V41.86C238.563 41.6264 238.486 41.4467 238.334 41.3209C238.181 41.1929 237.97 41.1289 237.7 41.1289H236.878V42.6045Z"></path>
    </mask>
    <path d="M71.6267 45V40.1687H72.6913V45H71.6267Z" fill="white" fill-opacity="0.3"></path>
    <path d="M78.3825 45V40.1687H79.3629L81.6269 43.1436V40.1687H82.6747V45H81.7718L79.4303 41.9307V45H78.3825Z" fill="white" fill-opacity="0.3"></path>
    <path d="M89.444 45V41.1491H87.9751V40.1687H91.9743V41.1491H90.5053V45H89.444Z" fill="white" fill-opacity="0.3"></path>
    <path d="M97.278 45V40.1687H100.92V41.1154H98.3325V42.0958H100.61V43.0392H98.3325V44.0533H100.957V45H97.278Z" fill="white" fill-opacity="0.3"></path>
    <path d="M106.385 45V40.1687H108.592C109.203 40.1687 109.673 40.3326 110.001 40.6605C110.277 40.9368 110.415 41.3041 110.415 41.7623V41.7791C110.415 42.1542 110.323 42.4675 110.139 42.7191C109.954 42.9707 109.702 43.156 109.381 43.275L110.56 45H109.317L108.282 43.4536H107.447V45H106.385ZM107.447 42.5169H108.525C108.781 42.5169 108.981 42.4552 109.125 42.3316C109.268 42.2059 109.34 42.0396 109.34 41.833V41.8195C109.34 41.5949 109.266 41.4242 109.118 41.3074C108.972 41.1884 108.767 41.1289 108.505 41.1289H107.447V42.5169Z" fill="white" fill-opacity="0.3"></path>
    <path d="M115.857 45V40.1687H116.837L119.101 43.1436V40.1687H120.149V45H119.246L116.905 41.9307V45H115.857Z" fill="white" fill-opacity="0.3"></path>
    <path d="M125.379 45L127.451 40.135H128.428L130.5 45H129.388L128.947 43.9151H126.905L126.463 45H125.379ZM127.282 42.9785H128.566L127.926 41.4119L127.282 42.9785Z" fill="white" fill-opacity="0.3"></path>
    <path d="M136.235 45V41.1491H134.766V40.1687H138.765V41.1491H137.296V45H136.235Z" fill="white" fill-opacity="0.3"></path>
    <path d="M144.116 45V40.1687H145.18V45H144.116Z" fill="white" fill-opacity="0.3"></path>
    <path d="M154.244 44.8854C153.923 45.018 153.58 45.0842 153.216 45.0842C152.853 45.0842 152.51 45.0191 152.189 44.8888C151.87 44.7585 151.599 44.5822 151.377 44.3599C151.155 44.1353 150.979 43.8702 150.851 43.5647C150.723 43.2593 150.659 42.937 150.659 42.5978V42.5843C150.659 42.2452 150.723 41.9229 150.851 41.6174C150.982 41.3097 151.159 41.0435 151.384 40.8189C151.608 40.5943 151.881 40.4168 152.202 40.2866C152.524 40.1541 152.866 40.0878 153.23 40.0878C153.715 40.0878 154.154 40.199 154.547 40.4213C154.94 40.6437 155.246 40.9447 155.464 41.3243C155.682 41.7016 155.79 42.1171 155.79 42.5708V42.5843C155.79 42.9235 155.725 43.2469 155.595 43.5546C155.465 43.8601 155.287 44.1251 155.063 44.3498C154.838 44.5744 154.565 44.7529 154.244 44.8854ZM152.475 43.8983C152.7 44.0353 152.951 44.1038 153.23 44.1038C153.508 44.1038 153.759 44.0364 153.981 43.9017C154.206 43.7646 154.379 43.5816 154.5 43.3525C154.621 43.1234 154.682 42.8718 154.682 42.5978V42.5843C154.682 42.1643 154.543 41.8072 154.264 41.5129C153.988 41.2165 153.639 41.0682 153.216 41.0682C152.938 41.0682 152.688 41.1356 152.465 41.2704C152.243 41.4051 152.071 41.5871 151.95 41.8162C151.828 42.0453 151.768 42.2968 151.768 42.5708V42.5843C151.768 42.8583 151.83 43.111 151.953 43.3424C152.077 43.5737 152.251 43.759 152.475 43.8983Z" fill="white" fill-opacity="0.3"></path>
    <path d="M161.219 45V40.1687H162.199L164.463 43.1436V40.1687H165.511V45H164.608L162.267 41.9307V45H161.219Z" fill="white" fill-opacity="0.3"></path>
    <path d="M170.741 45L172.813 40.135H173.79L175.862 45H174.75L174.309 43.9151H172.267L171.826 45H170.741ZM172.644 42.9785H173.928L173.288 41.4119L172.644 42.9785Z" fill="white" fill-opacity="0.3"></path>
    <path d="M181.091 45V40.1687H182.153V44.0331H184.562V45H181.091Z" fill="white" fill-opacity="0.3"></path>
    <path d="M198.727 45.0842C198.356 45.0842 198.013 45.0213 197.696 44.8956C197.381 44.7698 197.114 44.5968 196.894 44.3767C196.674 44.1566 196.501 43.8938 196.375 43.5883C196.252 43.2806 196.19 42.9504 196.19 42.5978V42.5843C196.19 42.2452 196.254 41.9229 196.382 41.6174C196.51 41.3097 196.684 41.0435 196.904 40.8189C197.126 40.5943 197.395 40.4168 197.709 40.2866C198.026 40.1541 198.363 40.0878 198.72 40.0878C199.138 40.0878 199.492 40.1417 199.781 40.2495C200.071 40.3573 200.35 40.5235 200.617 40.7481L199.95 41.5567C199.745 41.3883 199.549 41.2647 199.36 41.1861C199.174 41.1075 198.949 41.0682 198.686 41.0682C198.302 41.0682 197.974 41.2153 197.703 41.5096C197.433 41.8038 197.298 42.1576 197.298 42.5708V42.5843C197.298 43.0268 197.435 43.3929 197.709 43.6827C197.983 43.9724 198.334 44.1173 198.761 44.1173C199.156 44.1173 199.489 44.0207 199.761 43.8275V43.1369H198.693V42.2205H200.792V44.3161C200.19 44.8282 199.502 45.0842 198.727 45.0842Z" fill="white" fill-opacity="0.3"></path>
    <path d="M206.298 45V40.1687H208.505C209.116 40.1687 209.585 40.3326 209.913 40.6605C210.189 40.9368 210.327 41.3041 210.327 41.7623V41.7791C210.327 42.1542 210.235 42.4675 210.051 42.7191C209.867 42.9707 209.614 43.156 209.293 43.275L210.472 45H209.229L208.195 43.4536H207.359V45H206.298ZM207.359 42.5169H208.437C208.693 42.5169 208.893 42.4552 209.037 42.3316C209.181 42.2059 209.253 42.0396 209.253 41.833V41.8195C209.253 41.5949 209.179 41.4242 209.03 41.3074C208.884 41.1884 208.68 41.1289 208.417 41.1289H207.359V42.5169Z" fill="white" fill-opacity="0.3"></path>
    <path d="M219.142 44.8854C218.821 45.018 218.478 45.0842 218.114 45.0842C217.75 45.0842 217.408 45.0191 217.087 44.8888C216.768 44.7585 216.497 44.5822 216.275 44.3599C216.052 44.1353 215.877 43.8702 215.749 43.5647C215.621 43.2593 215.557 42.937 215.557 42.5978V42.5843C215.557 42.2452 215.621 41.9229 215.749 41.6174C215.879 41.3097 216.057 41.0435 216.281 40.8189C216.506 40.5943 216.779 40.4168 217.1 40.2866C217.421 40.1541 217.764 40.0878 218.128 40.0878C218.613 40.0878 219.052 40.199 219.445 40.4213C219.838 40.6437 220.144 40.9447 220.361 41.3243C220.579 41.7016 220.688 42.1171 220.688 42.5708V42.5843C220.688 42.9235 220.623 43.2469 220.493 43.5546C220.363 43.8601 220.185 44.1251 219.96 44.3498C219.736 44.5744 219.463 44.7529 219.142 44.8854ZM217.373 43.8983C217.598 44.0353 217.849 44.1038 218.128 44.1038C218.406 44.1038 218.657 44.0364 218.879 43.9017C219.104 43.7646 219.277 43.5816 219.398 43.3525C219.519 43.1234 219.58 42.8718 219.58 42.5978V42.5843C219.58 42.1643 219.441 41.8072 219.162 41.5129C218.886 41.2165 218.536 41.0682 218.114 41.0682C217.836 41.0682 217.585 41.1356 217.363 41.2704C217.141 41.4051 216.969 41.5871 216.847 41.8162C216.726 42.0453 216.665 42.2968 216.665 42.5708V42.5843C216.665 42.8583 216.727 43.111 216.851 43.3424C216.974 43.5737 217.148 43.759 217.373 43.8983Z" fill="white" fill-opacity="0.3"></path>
    <path d="M228.131 45.0775C227.471 45.0775 226.958 44.8956 226.592 44.5317C226.226 44.1656 226.042 43.6321 226.042 42.9313V40.1687H227.104V42.901C227.104 43.2896 227.195 43.5861 227.377 43.7905C227.559 43.9949 227.815 44.0971 228.145 44.0971C228.475 44.0971 228.731 43.9982 228.913 43.8006C229.095 43.6029 229.186 43.3154 229.186 42.9381V40.1687H230.251V42.8943C230.251 43.6108 230.063 44.1543 229.688 44.5249C229.315 44.8933 228.796 45.0775 228.131 45.0775Z" fill="white" fill-opacity="0.3"></path>
    <path d="M235.817 45V40.1687H237.791C238.36 40.1687 238.81 40.3225 239.142 40.6302C239.475 40.9357 239.641 41.3389 239.641 41.8397V41.8532C239.641 42.125 239.59 42.3698 239.489 42.5877C239.388 42.8056 239.248 42.9841 239.068 43.1234C238.891 43.2626 238.684 43.3693 238.448 43.4435C238.215 43.5153 237.961 43.5513 237.687 43.5513H236.878V45H235.817ZM236.878 42.6045H237.721C237.981 42.6045 238.187 42.536 238.337 42.399C238.488 42.262 238.563 42.0868 238.563 41.8734V41.86C238.563 41.6264 238.486 41.4467 238.334 41.3209C238.181 41.1929 237.97 41.1289 237.7 41.1289H236.878V42.6045Z" fill="white" fill-opacity="0.3"></path>
    <path d="M71.6267 45V40.1687H72.6913V45H71.6267Z" stroke="white" stroke-opacity="0.3" stroke-width="0.6" mask="url(#path-1-outside-1_12_13)"></path>
    <path d="M78.3825 45V40.1687H79.3629L81.6269 43.1436V40.1687H82.6747V45H81.7718L79.4303 41.9307V45H78.3825Z" stroke="white" stroke-opacity="0.3" stroke-width="0.6" mask="url(#path-1-outside-1_12_13)"></path>
    <path d="M89.444 45V41.1491H87.9751V40.1687H91.9743V41.1491H90.5053V45H89.444Z" stroke="white" stroke-opacity="0.3" stroke-width="0.6" mask="url(#path-1-outside-1_12_13)"></path>
    <path d="M97.278 45V40.1687H100.92V41.1154H98.3325V42.0958H100.61V43.0392H98.3325V44.0533H100.957V45H97.278Z" stroke="white" stroke-opacity="0.3" stroke-width="0.6" mask="url(#path-1-outside-1_12_13)"></path>
    <path d="M106.385 45V40.1687H108.592C109.203 40.1687 109.673 40.3326 110.001 40.6605C110.277 40.9368 110.415 41.3041 110.415 41.7623V41.7791C110.415 42.1542 110.323 42.4675 110.139 42.7191C109.954 42.9707 109.702 43.156 109.381 43.275L110.56 45H109.317L108.282 43.4536H107.447V45H106.385ZM107.447 42.5169H108.525C108.781 42.5169 108.981 42.4552 109.125 42.3316C109.268 42.2059 109.34 42.0396 109.34 41.833V41.8195C109.34 41.5949 109.266 41.4242 109.118 41.3074C108.972 41.1884 108.767 41.1289 108.505 41.1289H107.447V42.5169Z" stroke="white" stroke-opacity="0.3" stroke-width="0.6" mask="url(#path-1-outside-1_12_13)"></path>
    <path d="M115.857 45V40.1687H116.837L119.101 43.1436V40.1687H120.149V45H119.246L116.905 41.9307V45H115.857Z" stroke="white" stroke-opacity="0.3" stroke-width="0.6" mask="url(#path-1-outside-1_12_13)"></path>
    <path d="M125.379 45L127.451 40.135H128.428L130.5 45H129.388L128.947 43.9151H126.905L126.463 45H125.379ZM127.282 42.9785H128.566L127.926 41.4119L127.282 42.9785Z" stroke="white" stroke-opacity="0.3" stroke-width="0.6" mask="url(#path-1-outside-1_12_13)"></path>
    <path d="M136.235 45V41.1491H134.766V40.1687H138.765V41.1491H137.296V45H136.235Z" stroke="white" stroke-opacity="0.3" stroke-width="0.6" mask="url(#path-1-outside-1_12_13)"></path>
    <path d="M144.116 45V40.1687H145.18V45H144.116Z" stroke="white" stroke-opacity="0.3" stroke-width="0.6" mask="url(#path-1-outside-1_12_13)"></path>
    <path d="M154.244 44.8854C153.923 45.018 153.58 45.0842 153.216 45.0842C152.853 45.0842 152.51 45.0191 152.189 44.8888C151.87 44.7585 151.599 44.5822 151.377 44.3599C151.155 44.1353 150.979 43.8702 150.851 43.5647C150.723 43.2593 150.659 42.937 150.659 42.5978V42.5843C150.659 42.2452 150.723 41.9229 150.851 41.6174C150.982 41.3097 151.159 41.0435 151.384 40.8189C151.608 40.5943 151.881 40.4168 152.202 40.2866C152.524 40.1541 152.866 40.0878 153.23 40.0878C153.715 40.0878 154.154 40.199 154.547 40.4213C154.94 40.6437 155.246 40.9447 155.464 41.3243C155.682 41.7016 155.79 42.1171 155.79 42.5708V42.5843C155.79 42.9235 155.725 43.2469 155.595 43.5546C155.465 43.8601 155.287 44.1251 155.063 44.3498C154.838 44.5744 154.565 44.7529 154.244 44.8854ZM152.475 43.8983C152.7 44.0353 152.951 44.1038 153.23 44.1038C153.508 44.1038 153.759 44.0364 153.981 43.9017C154.206 43.7646 154.379 43.5816 154.5 43.3525C154.621 43.1234 154.682 42.8718 154.682 42.5978V42.5843C154.682 42.1643 154.543 41.8072 154.264 41.5129C153.988 41.2165 153.639 41.0682 153.216 41.0682C152.938 41.0682 152.688 41.1356 152.465 41.2704C152.243 41.4051 152.071 41.5871 151.95 41.8162C151.828 42.0453 151.768 42.2968 151.768 42.5708V42.5843C151.768 42.8583 151.83 43.111 151.953 43.3424C152.077 43.5737 152.251 43.759 152.475 43.8983Z" stroke="white" stroke-opacity="0.3" stroke-width="0.6" mask="url(#path-1-outside-1_12_13)"></path>
    <path d="M161.219 45V40.1687H162.199L164.463 43.1436V40.1687H165.511V45H164.608L162.267 41.9307V45H161.219Z" stroke="white" stroke-opacity="0.3" stroke-width="0.6" mask="url(#path-1-outside-1_12_13)"></path>
    <path d="M170.741 45L172.813 40.135H173.79L175.862 45H174.75L174.309 43.9151H172.267L171.826 45H170.741ZM172.644 42.9785H173.928L173.288 41.4119L172.644 42.9785Z" stroke="white" stroke-opacity="0.3" stroke-width="0.6" mask="url(#path-1-outside-1_12_13)"></path>
    <path d="M181.091 45V40.1687H182.153V44.0331H184.562V45H181.091Z" stroke="white" stroke-opacity="0.3" stroke-width="0.6" mask="url(#path-1-outside-1_12_13)"></path>
    <path d="M198.727 45.0842C198.356 45.0842 198.013 45.0213 197.696 44.8956C197.381 44.7698 197.114 44.5968 196.894 44.3767C196.674 44.1566 196.501 43.8938 196.375 43.5883C196.252 43.2806 196.19 42.9504 196.19 42.5978V42.5843C196.19 42.2452 196.254 41.9229 196.382 41.6174C196.51 41.3097 196.684 41.0435 196.904 40.8189C197.126 40.5943 197.395 40.4168 197.709 40.2866C198.026 40.1541 198.363 40.0878 198.72 40.0878C199.138 40.0878 199.492 40.1417 199.781 40.2495C200.071 40.3573 200.35 40.5235 200.617 40.7481L199.95 41.5567C199.745 41.3883 199.549 41.2647 199.36 41.1861C199.174 41.1075 198.949 41.0682 198.686 41.0682C198.302 41.0682 197.974 41.2153 197.703 41.5096C197.433 41.8038 197.298 42.1576 197.298 42.5708V42.5843C197.298 43.0268 197.435 43.3929 197.709 43.6827C197.983 43.9724 198.334 44.1173 198.761 44.1173C199.156 44.1173 199.489 44.0207 199.761 43.8275V43.1369H198.693V42.2205H200.792V44.3161C200.19 44.8282 199.502 45.0842 198.727 45.0842Z" stroke="white" stroke-opacity="0.3" stroke-width="0.6" mask="url(#path-1-outside-1_12_13)"></path>
    <path d="M206.298 45V40.1687H208.505C209.116 40.1687 209.585 40.3326 209.913 40.6605C210.189 40.9368 210.327 41.3041 210.327 41.7623V41.7791C210.327 42.1542 210.235 42.4675 210.051 42.7191C209.867 42.9707 209.614 43.156 209.293 43.275L210.472 45H209.229L208.195 43.4536H207.359V45H206.298ZM207.359 42.5169H208.437C208.693 42.5169 208.893 42.4552 209.037 42.3316C209.181 42.2059 209.253 42.0396 209.253 41.833V41.8195C209.253 41.5949 209.179 41.4242 209.03 41.3074C208.884 41.1884 208.68 41.1289 208.417 41.1289H207.359V42.5169Z" stroke="white" stroke-opacity="0.3" stroke-width="0.6" mask="url(#path-1-outside-1_12_13)"></path>
    <path d="M219.142 44.8854C218.821 45.018 218.478 45.0842 218.114 45.0842C217.75 45.0842 217.408 45.0191 217.087 44.8888C216.768 44.7585 216.497 44.5822 216.275 44.3599C216.052 44.1353 215.877 43.8702 215.749 43.5647C215.621 43.2593 215.557 42.937 215.557 42.5978V42.5843C215.557 42.2452 215.621 41.9229 215.749 41.6174C215.879 41.3097 216.057 41.0435 216.281 40.8189C216.506 40.5943 216.779 40.4168 217.1 40.2866C217.421 40.1541 217.764 40.0878 218.128 40.0878C218.613 40.0878 219.052 40.199 219.445 40.4213C219.838 40.6437 220.144 40.9447 220.361 41.3243C220.579 41.7016 220.688 42.1171 220.688 42.5708V42.5843C220.688 42.9235 220.623 43.2469 220.493 43.5546C220.363 43.8601 220.185 44.1251 219.96 44.3498C219.736 44.5744 219.463 44.7529 219.142 44.8854ZM217.373 43.8983C217.598 44.0353 217.849 44.1038 218.128 44.1038C218.406 44.1038 218.657 44.0364 218.879 43.9017C219.104 43.7646 219.277 43.5816 219.398 43.3525C219.519 43.1234 219.58 42.8718 219.58 42.5978V42.5843C219.58 42.1643 219.441 41.8072 219.162 41.5129C218.886 41.2165 218.536 41.0682 218.114 41.0682C217.836 41.0682 217.585 41.1356 217.363 41.2704C217.141 41.4051 216.969 41.5871 216.847 41.8162C216.726 42.0453 216.665 42.2968 216.665 42.5708V42.5843C216.665 42.8583 216.727 43.111 216.851 43.3424C216.974 43.5737 217.148 43.759 217.373 43.8983Z" stroke="white" stroke-opacity="0.3" stroke-width="0.6" mask="url(#path-1-outside-1_12_13)"></path>
    <path d="M228.131 45.0775C227.471 45.0775 226.958 44.8956 226.592 44.5317C226.226 44.1656 226.042 43.6321 226.042 42.9313V40.1687H227.104V42.901C227.104 43.2896 227.195 43.5861 227.377 43.7905C227.559 43.9949 227.815 44.0971 228.145 44.0971C228.475 44.0971 228.731 43.9982 228.913 43.8006C229.095 43.6029 229.186 43.3154 229.186 42.9381V40.1687H230.251V42.8943C230.251 43.6108 230.063 44.1543 229.688 44.5249C229.315 44.8933 228.796 45.0775 228.131 45.0775Z" stroke="white" stroke-opacity="0.3" stroke-width="0.6" mask="url(#path-1-outside-1_12_13)"></path>
    <path d="M235.817 45V40.1687H237.791C238.36 40.1687 238.81 40.3225 239.142 40.6302C239.475 40.9357 239.641 41.3389 239.641 41.8397V41.8532C239.641 42.125 239.59 42.3698 239.489 42.5877C239.388 42.8056 239.248 42.9841 239.068 43.1234C238.891 43.2626 238.684 43.3693 238.448 43.4435C238.215 43.5153 237.961 43.5513 237.687 43.5513H236.878V45H235.817ZM236.878 42.6045H237.721C237.981 42.6045 238.187 42.536 238.337 42.399C238.488 42.262 238.563 42.0868 238.563 41.8734V41.86C238.563 41.6264 238.486 41.4467 238.334 41.3209C238.181 41.1929 237.97 41.1289 237.7 41.1289H236.878V42.6045Z" stroke="white" stroke-opacity="0.3" stroke-width="0.6" mask="url(#path-1-outside-1_12_13)"></path>
    <path d="M36.5 1L67.5 53.5" stroke="white" stroke-opacity="0.3" stroke-width="1.2"></path>
    <path fill-rule="evenodd" clip-rule="evenodd" d="M51.8361 25.989V18.4204L56.8165 25.9658H56.9161L61.934 18.3457V30H65.8436V12.145H61.6102L56.9161 19.7029L52.222 12.145H47.9886V19.4732L51.8361 25.989ZM84.7579 29.5767C83.5709 30.0664 82.3051 30.3113 80.9603 30.3113C79.6156 30.3113 78.3497 30.0706 77.1627 29.5891C75.984 29.1077 74.9838 28.4561 74.162 27.6343C73.3402 26.8042 72.6928 25.8247 72.2196 24.6958C71.7465 23.5669 71.5099 22.3757 71.5099 21.1223V21.0725C71.5099 19.8191 71.7465 18.6279 72.2196 17.499C72.7011 16.3618 73.3568 15.3782 74.1869 14.5481C75.017 13.718 76.0255 13.0623 77.2125 12.5808C78.3996 12.0911 79.6654 11.8462 81.0101 11.8462C82.8031 11.8462 84.4259 12.2571 85.8786 13.0789C87.3312 13.9006 88.4601 15.0129 89.2653 16.4158C90.0704 17.8103 90.473 19.3459 90.473 21.0227V21.0725C90.473 22.3259 90.2323 23.5212 89.7509 24.6584C89.2694 25.7874 88.6137 26.7668 87.7836 27.5969C86.9535 28.427 85.945 29.0869 84.7579 29.5767ZM78.2211 25.9285C79.0512 26.4348 79.9809 26.688 81.0101 26.688C82.0394 26.688 82.965 26.439 83.7868 25.9409C84.6168 25.4346 85.256 24.7581 85.7042 23.9114C86.1525 23.0647 86.3766 22.135 86.3766 21.1223V21.0725C86.3766 19.5203 85.862 18.2004 84.8327 17.113C83.8117 16.0173 82.5209 15.4695 80.9603 15.4695C79.931 15.4695 79.0055 15.7185 78.1837 16.2166C77.362 16.7146 76.7269 17.387 76.2787 18.2336C75.8305 19.0803 75.6063 20.01 75.6063 21.0227V21.0725C75.6063 22.0852 75.8346 23.019 76.2912 23.874C76.7477 24.729 77.391 25.4138 78.2211 25.9285ZM96.1269 12.145H99.7502L108.117 23.1394V12.145H111.99V30H108.653L99.9992 18.657V30H96.1269V12.145ZM122.599 30V15.7683H117.17V12.145H131.95V15.7683H126.521V30H122.599ZM137.317 12.145H141.252V30H137.317V12.145ZM156.244 30.3113C154.526 30.3113 152.965 29.9045 151.562 29.0911C150.16 28.2776 149.064 27.1694 148.275 25.7666C147.487 24.3638 147.093 22.8157 147.093 21.1223V21.0725C147.093 19.3875 147.483 17.8435 148.263 16.4407C149.043 15.0378 150.147 13.9214 151.575 13.0913C153.003 12.2612 154.609 11.8462 156.394 11.8462C157.971 11.8462 159.311 12.0828 160.415 12.5559C161.519 13.0291 162.524 13.7097 163.428 14.5979L160.938 17.4741C160.208 16.8184 159.477 16.3203 158.747 15.98C158.016 15.6396 157.224 15.4695 156.369 15.4695C154.883 15.4695 153.646 16.009 152.658 17.0881C151.679 18.1589 151.189 19.4705 151.189 21.0227V21.0725C151.189 22.6331 151.675 23.9612 152.646 25.0569C153.625 26.1443 154.866 26.688 156.369 26.688C157.315 26.688 158.137 26.5178 158.834 26.1775C159.531 25.8372 160.274 25.3101 161.063 24.5962L163.565 27.1238C162.578 28.1863 161.515 28.9832 160.378 29.5144C159.249 30.0457 157.871 30.3113 156.244 30.3113ZM168.871 12.145H182.33V15.6438H172.768V19.2671H181.185V22.7534H172.768V26.5012H182.467V30H168.871V12.145ZM188.121 12.145H192.043V26.4265H200.946V30H188.121V12.145ZM206.077 12.145H209.999V26.4265H218.901V30H206.077V12.145ZM235.475 29.5767C234.288 30.0664 233.022 30.3113 231.677 30.3113C230.333 30.3113 229.067 30.0706 227.88 29.5891C226.701 29.1077 225.701 28.4561 224.879 27.6343C224.057 26.8042 223.41 25.8247 222.937 24.6958C222.463 23.5669 222.227 22.3757 222.227 21.1223V21.0725C222.227 19.8191 222.463 18.6279 222.937 17.499C223.418 16.3618 224.074 15.3782 224.904 14.5481C225.734 13.718 226.742 13.0623 227.93 12.5808C229.117 12.0911 230.382 11.8462 231.727 11.8462C233.52 11.8462 235.143 12.2571 236.596 13.0789C238.048 13.9006 239.177 15.0129 239.982 16.4158C240.787 17.8103 241.19 19.3459 241.19 21.0227V21.0725C241.19 22.3259 240.949 23.5212 240.468 24.6584C239.986 25.7874 239.331 26.7668 238.501 27.5969C237.67 28.427 236.662 29.0869 235.475 29.5767ZM228.938 25.9285C229.768 26.4348 230.698 26.688 231.727 26.688C232.756 26.688 233.682 26.439 234.504 25.9409C235.334 25.4346 235.973 24.7581 236.421 23.9114C236.869 23.0647 237.094 22.135 237.094 21.1223V21.0725C237.094 19.5203 236.579 18.2004 235.55 17.113C234.529 16.0173 233.238 15.4695 231.677 15.4695C230.648 15.4695 229.722 15.7185 228.901 16.2166C228.079 16.7146 227.444 17.387 226.996 18.2336C226.547 19.0803 226.323 20.01 226.323 21.0227V21.0725C226.323 22.0852 226.552 23.019 227.008 23.874C227.465 24.729 228.108 25.4138 228.938 25.9285Z" fill="white"></path>
    <path d="M51.8361 25.989L51.1041 26.4212L52.6861 29.1002V25.989H51.8361ZM51.8361 18.4204L52.5455 17.9522L50.9861 15.5897V18.4204H51.8361ZM56.8165 25.9658L56.1071 26.4341L56.3591 26.8158H56.8165V25.9658ZM56.9161 25.9658V26.8158H57.3741L57.626 26.4333L56.9161 25.9658ZM61.934 18.3457H62.784V15.5093L61.224 17.8782L61.934 18.3457ZM61.934 30H61.084V30.85H61.934V30ZM65.8436 30V30.85H66.6936V30H65.8436ZM65.8436 12.145H66.6936V11.295H65.8436V12.145ZM61.6102 12.145V11.295H61.1375L60.8882 11.6966L61.6102 12.145ZM56.9161 19.7029L56.1941 20.1513L56.9161 21.3139L57.6382 20.1513L56.9161 19.7029ZM52.222 12.145L52.9441 11.6966L52.6947 11.295H52.222V12.145ZM47.9886 12.145V11.295H47.1386V12.145H47.9886ZM47.9886 19.4732H47.1386V19.7054L47.2567 19.9054L47.9886 19.4732ZM77.1627 29.5891L76.8413 30.376L76.8433 30.3768L77.1627 29.5891ZM74.162 27.6343L73.5579 28.2323L73.561 28.2353L74.162 27.6343ZM72.2196 17.499L71.4369 17.1676L71.4357 17.1705L72.2196 17.499ZM77.2125 12.5808L77.532 13.3685L77.5367 13.3666L77.2125 12.5808ZM89.2653 16.4158L88.5281 16.8389L88.5292 16.8408L89.2653 16.4158ZM89.7509 24.6584L90.5327 24.9919L90.5336 24.9898L89.7509 24.6584ZM78.2211 25.9285L77.7732 26.6509L77.7784 26.6541L78.2211 25.9285ZM83.7868 25.9409L84.2273 26.6678L84.2294 26.6666L83.7868 25.9409ZM84.8327 17.113L84.2108 17.6925L84.2153 17.6974L84.8327 17.113ZM96.1269 12.145V11.295H95.2769V12.145H96.1269ZM99.7502 12.145L100.427 11.6303L100.171 11.295H99.7502V12.145ZM108.117 23.1394L107.441 23.6542L108.967 25.6598V23.1394H108.117ZM108.117 12.145V11.295H107.267V12.145H108.117ZM111.99 12.145H112.84V11.295H111.99V12.145ZM111.99 30V30.85H112.84V30H111.99ZM108.653 30L107.977 30.5156L108.232 30.85H108.653V30ZM99.9992 18.657L100.675 18.1414L99.1492 16.1414V18.657H99.9992ZM99.9992 30V30.85H100.849V30H99.9992ZM96.1269 30H95.2769V30.85H96.1269V30ZM122.599 30H121.749V30.85H122.599V30ZM122.599 15.7683H123.449V14.9183H122.599V15.7683ZM117.17 15.7683H116.32V16.6183H117.17V15.7683ZM117.17 12.145V11.295H116.32V12.145H117.17ZM131.95 12.145H132.8V11.295H131.95V12.145ZM131.95 15.7683V16.6183H132.8V15.7683H131.95ZM126.521 15.7683V14.9183H125.671V15.7683H126.521ZM126.521 30V30.85H127.371V30H126.521ZM137.317 12.145V11.295H136.467V12.145H137.317ZM141.252 12.145H142.102V11.295H141.252V12.145ZM141.252 30V30.85H142.102V30H141.252ZM137.317 30H136.467V30.85H137.317V30ZM163.428 14.5979L164.071 15.1543L164.594 14.5506L164.024 13.9913L163.428 14.5979ZM160.938 17.4741L160.37 18.1066L161.014 18.6848L161.581 18.0305L160.938 17.4741ZM152.658 17.0881L152.031 16.5142L152.031 16.5144L152.658 17.0881ZM152.646 25.0569L152.01 25.6207L152.014 25.6258L152.646 25.0569ZM161.063 24.5962L161.667 23.9981L161.095 23.4206L160.492 23.966L161.063 24.5962ZM163.565 27.1238L164.188 27.7025L164.743 27.1052L164.169 26.5257L163.565 27.1238ZM160.378 29.5144L160.018 28.7443L160.016 28.7453L160.378 29.5144ZM168.871 12.145V11.295H168.021V12.145H168.871ZM182.33 12.145H183.18V11.295H182.33V12.145ZM182.33 15.6438V16.4938H183.18V15.6438H182.33ZM172.768 15.6438V14.7938H171.918V15.6438H172.768ZM172.768 19.2671H171.918V20.1171H172.768V19.2671ZM181.185 19.2671H182.035V18.4171H181.185V19.2671ZM181.185 22.7534V23.6034H182.035V22.7534H181.185ZM172.768 22.7534V21.9034H171.918V22.7534H172.768ZM172.768 26.5012H171.918V27.3512H172.768V26.5012ZM182.467 26.5012H183.317V25.6512H182.467V26.5012ZM182.467 30V30.85H183.317V30H182.467ZM168.871 30H168.021V30.85H168.871V30ZM188.121 12.145V11.295H187.271V12.145H188.121ZM192.043 12.145H192.893V11.295H192.043V12.145ZM192.043 26.4265H191.193V27.2765H192.043V26.4265ZM200.946 26.4265H201.796V25.5765H200.946V26.4265ZM200.946 30V30.85H201.796V30H200.946ZM188.121 30H187.271V30.85H188.121V30ZM206.077 12.145V11.295H205.227V12.145H206.077ZM209.999 12.145H210.849V11.295H209.999V12.145ZM209.999 26.4265H209.149V27.2765H209.999V26.4265ZM218.901 26.4265H219.751V25.5765H218.901V26.4265ZM218.901 30V30.85H219.751V30H218.901ZM206.077 30H205.227V30.85H206.077V30ZM227.88 29.5891L227.558 30.376L227.56 30.3768L227.88 29.5891ZM224.879 27.6343L224.275 28.2323L224.278 28.2353L224.879 27.6343ZM222.937 17.499L222.154 17.1676L222.153 17.1705L222.937 17.499ZM227.93 12.5808L228.249 13.3685L228.254 13.3666L227.93 12.5808ZM239.982 16.4158L239.245 16.8389L239.246 16.8408L239.982 16.4158ZM240.468 24.6584L241.25 24.9919L241.251 24.9898L240.468 24.6584ZM228.938 25.9285L228.49 26.6509L228.495 26.6541L228.938 25.9285ZM234.504 25.9409L234.944 26.6678L234.946 26.6666L234.504 25.9409ZM235.55 17.113L234.928 17.6925L234.932 17.6974L235.55 17.113ZM52.6861 25.989V18.4204H50.9861V25.989H52.6861ZM51.1267 18.8887L56.1071 26.4341L57.5259 25.4976L52.5455 17.9522L51.1267 18.8887ZM56.8165 26.8158H56.9161V25.1158H56.8165V26.8158ZM57.626 26.4333L62.6439 18.8132L61.224 17.8782L56.2062 25.4983L57.626 26.4333ZM61.084 18.3457V30H62.784V18.3457H61.084ZM61.934 30.85H65.8436V29.15H61.934V30.85ZM66.6936 30V12.145H64.9936V30H66.6936ZM65.8436 11.295H61.6102V12.995H65.8436V11.295ZM60.8882 11.6966L56.1941 19.2544L57.6382 20.1513L62.3323 12.5935L60.8882 11.6966ZM57.6382 19.2544L52.9441 11.6966L51.5 12.5935L56.1941 20.1513L57.6382 19.2544ZM52.222 11.295H47.9886V12.995H52.222V11.295ZM47.1386 12.145V19.4732H48.8386V12.145H47.1386ZM47.2567 19.9054L51.1041 26.4212L52.568 25.5568L48.7206 19.041L47.2567 19.9054ZM84.4338 28.7909C83.3544 29.2362 82.1992 29.4613 80.9603 29.4613V31.1613C82.411 31.1613 83.7875 30.8966 85.0821 30.3624L84.4338 28.7909ZM80.9603 29.4613C79.7196 29.4613 78.5627 29.2397 77.4822 28.8014L76.8433 30.3768C78.1368 30.9014 79.5116 31.1613 80.9603 31.1613V29.4613ZM77.4841 28.8022C76.4 28.3594 75.4976 27.7677 74.763 27.0332L73.561 28.2353C74.47 29.1444 75.568 29.8559 76.8413 30.376L77.4841 28.8022ZM74.7661 27.0363C74.0246 26.2873 73.4366 25.4005 73.0036 24.3672L71.4357 25.0244C71.9489 26.2489 72.6558 27.3211 73.5579 28.2323L74.7661 27.0363ZM73.0036 24.3672C72.5751 23.3449 72.3599 22.2657 72.3599 21.1223H70.6599C70.6599 22.4858 70.9179 23.7889 71.4357 25.0244L73.0036 24.3672ZM72.3599 21.1223V21.0725H70.6599V21.1223H72.3599ZM72.3599 21.0725C72.3599 19.9291 72.5751 18.8499 73.0036 17.8276L71.4357 17.1705C70.9179 18.4059 70.6599 19.709 70.6599 21.0725H72.3599ZM73.0024 17.8304C73.4434 16.7886 74.0392 15.8979 74.7879 15.1491L73.5859 13.9471C72.6745 14.8585 71.9587 15.935 71.4369 17.1676L73.0024 17.8304ZM74.7879 15.1491C75.5305 14.4066 76.4407 13.8111 77.532 13.3685L76.8931 11.7931C75.6103 12.3134 74.5034 13.0295 73.5859 13.9471L74.7879 15.1491ZM77.5367 13.3666C78.6161 12.9212 79.7713 12.6962 81.0101 12.6962V10.9962C79.5595 10.9962 78.183 11.2609 76.8883 11.7951L77.5367 13.3666ZM81.0101 12.6962C82.6677 12.6962 84.1445 13.0745 85.46 13.8187L86.2971 12.339C84.7073 11.4397 82.9385 10.9962 81.0101 10.9962V12.6962ZM85.46 13.8187C86.7844 14.5679 87.8013 15.5726 88.5281 16.8389L90.0025 15.9926C89.1189 14.4532 87.878 13.2334 86.2971 12.339L85.46 13.8187ZM88.5292 16.8408C89.2566 18.1006 89.623 19.4887 89.623 21.0227H91.323C91.323 19.2032 90.8843 17.52 90.0014 15.9908L88.5292 16.8408ZM89.623 21.0227V21.0725H91.323V21.0227H89.623ZM89.623 21.0725C89.623 22.2138 89.4045 23.2963 88.9681 24.3271L90.5336 24.9898C91.0601 23.7462 91.323 22.438 91.323 21.0725H89.623ZM88.969 24.325C88.5282 25.3586 87.9323 26.2461 87.1825 26.9959L88.3846 28.198C89.295 27.2876 90.0106 26.2161 90.5327 24.9919L88.969 24.325ZM87.1825 26.9959C86.4388 27.7396 85.527 28.3399 84.4338 28.7909L85.0821 30.3624C86.3629 29.834 87.4682 29.1144 88.3846 28.198L87.1825 26.9959ZM77.7784 26.6541C78.7498 27.2466 79.8342 27.538 81.0101 27.538V25.838C80.1275 25.838 79.3526 25.623 78.6637 25.2028L77.7784 26.6541ZM81.0101 27.538C82.1833 27.538 83.2632 27.2521 84.2273 26.6678L83.3462 25.214C82.6668 25.6258 81.8956 25.838 81.0101 25.838V27.538ZM84.2294 26.6666C85.1879 26.0819 85.9346 25.2929 86.4555 24.3091L84.953 23.5137C84.5774 24.2232 84.0458 24.7873 83.3441 25.2153L84.2294 26.6666ZM86.4555 24.3091C86.9723 23.3329 87.2266 22.2655 87.2266 21.1223H85.5266C85.5266 22.0045 85.3327 22.7965 84.953 23.5137L86.4555 24.3091ZM87.2266 21.1223V21.0725H85.5266V21.1223H87.2266ZM87.2266 21.0725C87.2266 19.3117 86.6346 17.7803 85.45 16.5287L84.2153 17.6974C85.0893 18.6206 85.5266 19.7288 85.5266 21.0725H87.2266ZM85.4545 16.5336C84.2653 15.2573 82.7456 14.6195 80.9603 14.6195V16.3195C82.2962 16.3195 83.358 16.7774 84.2108 17.6925L85.4545 16.5336ZM80.9603 14.6195C79.7872 14.6195 78.7073 14.9053 77.7432 15.4896L78.6243 16.9435C79.3037 16.5317 80.0749 16.3195 80.9603 16.3195V14.6195ZM77.7432 15.4896C76.7904 16.0671 76.0478 16.853 75.5275 17.8359L77.0299 18.6313C77.406 17.9209 77.9335 17.3621 78.6243 16.9435L77.7432 15.4896ZM75.5275 17.8359C75.0107 18.8122 74.7563 19.8795 74.7563 21.0227H76.4563C76.4563 20.1405 76.6503 19.3485 77.0299 18.6313L75.5275 17.8359ZM74.7563 21.0227V21.0725H76.4563V21.0227H74.7563ZM74.7563 21.0725C74.7563 22.2184 75.016 23.2906 75.5414 24.2744L77.041 23.4736C76.6532 22.7475 76.4563 21.952 76.4563 21.0725H74.7563ZM75.5414 24.2744C76.069 25.2625 76.8169 26.058 77.7732 26.6509L78.669 25.206C77.9651 24.7697 77.4264 24.1955 77.041 23.4736L75.5414 24.2744ZM96.1269 12.995H99.7502V11.295H96.1269V12.995ZM99.0738 12.6598L107.441 23.6542L108.794 22.6246L100.427 11.6303L99.0738 12.6598ZM108.967 23.1394V12.145H107.267V23.1394H108.967ZM108.117 12.995H111.99V11.295H108.117V12.995ZM111.14 12.145V30H112.84V12.145H111.14ZM111.99 29.15H108.653V30.85H111.99V29.15ZM109.329 29.4844L100.675 18.1414L99.3234 19.1725L107.977 30.5156L109.329 29.4844ZM99.1492 18.657V30H100.849V18.657H99.1492ZM99.9992 29.15H96.1269V30.85H99.9992V29.15ZM96.9769 30V12.145H95.2769V30H96.9769ZM123.449 30V15.7683H121.749V30H123.449ZM122.599 14.9183H117.17V16.6183H122.599V14.9183ZM118.02 15.7683V12.145H116.32V15.7683H118.02ZM117.17 12.995H131.95V11.295H117.17V12.995ZM131.1 12.145V15.7683H132.8V12.145H131.1ZM131.95 14.9183H126.521V16.6183H131.95V14.9183ZM125.671 15.7683V30H127.371V15.7683H125.671ZM126.521 29.15H122.599V30.85H126.521V29.15ZM137.317 12.995H141.252V11.295H137.317V12.995ZM140.402 12.145V30H142.102V12.145H140.402ZM141.252 29.15H137.317V30.85H141.252V29.15ZM138.167 30V12.145H136.467V30H138.167ZM156.244 29.4613C154.666 29.4613 153.254 29.0896 151.989 28.3558L151.136 29.8264C152.676 30.7195 154.385 31.1613 156.244 31.1613V29.4613ZM151.989 28.3558C150.716 27.6179 149.73 26.6194 149.016 25.3501L147.534 26.1831C148.398 27.7195 149.603 28.9373 151.136 29.8264L151.989 28.3558ZM149.016 25.3501C148.303 24.0812 147.943 22.6777 147.943 21.1223H146.243C146.243 22.9537 146.671 24.6464 147.534 26.1831L149.016 25.3501ZM147.943 21.1223V21.0725H146.243V21.1223H147.943ZM147.943 21.0725C147.943 19.5246 148.299 18.1239 149.006 16.8538L147.52 16.0275C146.666 17.5631 146.243 19.2503 146.243 21.0725H147.943ZM149.006 16.8538C149.709 15.5887 150.703 14.5817 152.002 13.8261L151.148 12.3565C149.592 13.2611 148.377 14.487 147.52 16.0275L149.006 16.8538ZM152.002 13.8261C153.29 13.0775 154.746 12.6962 156.394 12.6962V10.9962C154.471 10.9962 152.716 11.4449 151.148 12.3565L152.002 13.8261ZM156.394 12.6962C157.89 12.6962 159.11 12.9212 160.08 13.3372L160.75 11.7746C159.513 11.2443 158.051 10.9962 156.394 10.9962V12.6962ZM160.08 13.3372C161.082 13.7665 161.999 14.386 162.833 15.2045L164.024 13.9913C163.048 13.0334 161.956 12.2916 160.75 11.7746L160.08 13.3372ZM162.786 14.0415L160.296 16.9177L161.581 18.0305L164.071 15.1543L162.786 14.0415ZM161.506 16.8416C160.726 16.1416 159.927 15.592 159.106 15.2095L158.388 16.7505C159.028 17.0486 159.689 17.4952 160.37 18.1066L161.506 16.8416ZM159.106 15.2095C158.256 14.8136 157.34 14.6195 156.369 14.6195V16.3195C157.107 16.3195 157.777 16.4657 158.388 16.7505L159.106 15.2095ZM156.369 14.6195C154.649 14.6195 153.183 15.2561 152.031 16.5142L153.285 17.6621C154.109 16.762 155.117 16.3195 156.369 16.3195V14.6195ZM152.031 16.5144C150.898 17.7534 150.339 19.2743 150.339 21.0227H152.039C152.039 19.6667 152.46 18.5644 153.285 17.6618L152.031 16.5144ZM150.339 21.0227V21.0725H152.039V21.0227H150.339ZM150.339 21.0725C150.339 22.8259 150.891 24.3587 152.01 25.6207L153.282 24.4931C152.458 23.5636 152.039 22.4402 152.039 21.0725H150.339ZM152.014 25.6258C153.16 26.8975 154.633 27.538 156.369 27.538V25.838C155.1 25.838 154.091 25.3911 153.277 24.488L152.014 25.6258ZM156.369 27.538C157.416 27.538 158.371 27.3494 159.207 26.9414L158.461 25.4136C157.903 25.6862 157.214 25.838 156.369 25.838V27.538ZM159.207 26.9414C159.997 26.5557 160.806 25.9755 161.633 25.2263L160.492 23.966C159.743 24.6446 159.066 25.1186 158.461 25.4136L159.207 26.9414ZM160.459 25.1942L162.961 27.7218L164.169 26.5257L161.667 23.9981L160.459 25.1942ZM162.943 26.545C162.018 27.5398 161.042 28.266 160.018 28.7443L160.738 30.2845C161.988 29.7003 163.137 28.8328 164.188 27.7025L162.943 26.545ZM160.016 28.7453C159.029 29.2097 157.782 29.4613 156.244 29.4613V31.1613C157.96 31.1613 159.469 30.8816 160.74 30.2835L160.016 28.7453ZM168.871 12.995H182.33V11.295H168.871V12.995ZM181.48 12.145V15.6438H183.18V12.145H181.48ZM182.33 14.7938H172.768V16.4938H182.33V14.7938ZM171.918 15.6438V19.2671H173.618V15.6438H171.918ZM172.768 20.1171H181.185V18.4171H172.768V20.1171ZM180.335 19.2671V22.7534H182.035V19.2671H180.335ZM181.185 21.9034H172.768V23.6034H181.185V21.9034ZM171.918 22.7534V26.5012H173.618V22.7534H171.918ZM172.768 27.3512H182.467V25.6512H172.768V27.3512ZM181.617 26.5012V30H183.317V26.5012H181.617ZM182.467 29.15H168.871V30.85H182.467V29.15ZM169.721 30V12.145H168.021V30H169.721ZM188.121 12.995H192.043V11.295H188.121V12.995ZM191.193 12.145V26.4265H192.893V12.145H191.193ZM192.043 27.2765H200.946V25.5765H192.043V27.2765ZM200.096 26.4265V30H201.796V26.4265H200.096ZM200.946 29.15H188.121V30.85H200.946V29.15ZM188.971 30V12.145H187.271V30H188.971ZM206.077 12.995H209.999V11.295H206.077V12.995ZM209.149 12.145V26.4265H210.849V12.145H209.149ZM209.999 27.2765H218.901V25.5765H209.999V27.2765ZM218.051 26.4265V30H219.751V26.4265H218.051ZM218.901 29.15H206.077V30.85H218.901V29.15ZM206.927 30V12.145H205.227V30H206.927ZM235.151 28.7909C234.071 29.2362 232.916 29.4613 231.677 29.4613V31.1613C233.128 31.1613 234.504 30.8966 235.799 30.3624L235.151 28.7909ZM231.677 29.4613C230.437 29.4613 229.28 29.2397 228.199 28.8014L227.56 30.3768C228.854 30.9014 230.229 31.1613 231.677 31.1613V29.4613ZM228.201 28.8022C227.117 28.3594 226.215 27.7677 225.48 27.0332L224.278 28.2353C225.187 29.1444 226.285 29.8559 227.558 30.376L228.201 28.8022ZM225.483 27.0363C224.742 26.2873 224.154 25.4005 223.721 24.3672L222.153 25.0244C222.666 26.2489 223.373 27.3211 224.275 28.2323L225.483 27.0363ZM223.721 24.3672C223.292 23.3449 223.077 22.2657 223.077 21.1223H221.377C221.377 22.4858 221.635 23.7889 222.153 25.0244L223.721 24.3672ZM223.077 21.1223V21.0725H221.377V21.1223H223.077ZM223.077 21.0725C223.077 19.9291 223.292 18.8499 223.721 17.8276L222.153 17.1705C221.635 18.4059 221.377 19.709 221.377 21.0725H223.077ZM223.719 17.8304C224.16 16.7886 224.756 15.8979 225.505 15.1491L224.303 13.9471C223.391 14.8585 222.676 15.935 222.154 17.1676L223.719 17.8304ZM225.505 15.1491C226.247 14.4066 227.158 13.8111 228.249 13.3685L227.61 11.7931C226.327 12.3134 225.22 13.0295 224.303 13.9471L225.505 15.1491ZM228.254 13.3666C229.333 12.9212 230.488 12.6962 231.727 12.6962V10.9962C230.276 10.9962 228.9 11.2609 227.605 11.7951L228.254 13.3666ZM231.727 12.6962C233.385 12.6962 234.861 13.0745 236.177 13.8187L237.014 12.339C235.424 11.4397 233.656 10.9962 231.727 10.9962V12.6962ZM236.177 13.8187C237.501 14.5679 238.518 15.5726 239.245 16.8389L240.719 15.9926C239.836 14.4532 238.595 13.2334 237.014 12.339L236.177 13.8187ZM239.246 16.8408C239.974 18.1006 240.34 19.4887 240.34 21.0227H242.04C242.04 19.2032 241.601 17.52 240.718 15.9908L239.246 16.8408ZM240.34 21.0227V21.0725H242.04V21.0227H240.34ZM240.34 21.0725C240.34 22.2138 240.121 23.2963 239.685 24.3271L241.251 24.9898C241.777 23.7462 242.04 22.438 242.04 21.0725H240.34ZM239.686 24.325C239.245 25.3586 238.649 26.2461 237.9 26.9959L239.102 28.198C240.012 27.2876 240.728 26.2161 241.25 24.9919L239.686 24.325ZM237.9 26.9959C237.156 27.7396 236.244 28.3399 235.151 28.7909L235.799 30.3624C237.08 29.834 238.185 29.1144 239.102 28.198L237.9 26.9959ZM228.495 26.6541C229.467 27.2466 230.551 27.538 231.727 27.538V25.838C230.844 25.838 230.07 25.623 229.381 25.2028L228.495 26.6541ZM231.727 27.538C232.9 27.538 233.98 27.2521 234.944 26.6678L234.063 25.214C233.384 25.6258 232.613 25.838 231.727 25.838V27.538ZM234.946 26.6666C235.905 26.0819 236.652 25.2929 237.172 24.3091L235.67 23.5137C235.294 24.2232 234.763 24.7873 234.061 25.2153L234.946 26.6666ZM237.172 24.3091C237.689 23.3329 237.944 22.2655 237.944 21.1223H236.244C236.244 22.0045 236.05 22.7965 235.67 23.5137L237.172 24.3091ZM237.944 21.1223V21.0725H236.244V21.1223H237.944ZM237.944 21.0725C237.944 19.3117 237.352 17.7803 236.167 16.5287L234.932 17.6974C235.806 18.6206 236.244 19.7288 236.244 21.0725H237.944ZM236.171 16.5336C234.982 15.2573 233.463 14.6195 231.677 14.6195V16.3195C233.013 16.3195 234.075 16.7774 234.928 17.6925L236.171 16.5336ZM231.677 14.6195C230.504 14.6195 229.424 14.9053 228.46 15.4896L229.341 16.9435C230.021 16.5317 230.792 16.3195 231.677 16.3195V14.6195ZM228.46 15.4896C227.507 16.0671 226.765 16.853 226.244 17.8359L227.747 18.6313C228.123 17.9209 228.65 17.3621 229.341 16.9435L228.46 15.4896ZM226.244 17.8359C225.728 18.8122 225.473 19.8795 225.473 21.0227H227.173C227.173 20.1405 227.367 19.3485 227.747 18.6313L226.244 17.8359ZM225.473 21.0227V21.0725H227.173V21.0227H225.473ZM225.473 21.0725C225.473 22.2184 225.733 23.2906 226.258 24.2744L227.758 23.4736C227.37 22.7475 227.173 21.952 227.173 21.0725H225.473ZM226.258 24.2744C226.786 25.2625 227.534 26.058 228.49 26.6509L229.386 25.206C228.682 24.7697 228.143 24.1955 227.758 23.4736L226.258 24.2744Z" fill="white"></path>
    <path d="M29 10.5L25.5 4L0 48.5H17.5L31 24.5L41.5 42.5L25.5 43L22.5 48.5H52L31 12.5L14 42.5H9.5L29 10.5Z" fill="white"></path>
  </symbol>
  <symbol id="360-degrees" xmlns="http://www.w3.org/2000/svg" viewBox="0 0 80.62 80.62">
    <circle cx="40.31" cy="40.31" r="38.81" stroke-width="3pt"></circle>
    <ellipse cx="41.04" cy="40.21" rx="18.48" ry="36.93"></ellipse>
    <ellipse cx="40.21" cy="40.82" rx="37.18" ry="18.32"></ellipse>
    <g fill="white">
      <path d="M18.07,44.79c1.03,1.21,2.73,1.96,4.42,1.96,2.1,0,3.32-.97,3.32-2.47,0-1.6-1.27-2.28-3.54-2.28-.67,0-1.6,0-1.84,.02v-2.55c.29,.02,1.22,.02,1.84,.02,1.87,0,3.28-.65,3.28-2.13s-1.43-2.28-3.23-2.28c-1.63,0-2.96,.63-4.11,1.79l-1.43-1.77c1.22-1.46,3.16-2.55,5.81-2.55,3.44,0,5.76,1.65,5.76,4.36,0,2.16-1.82,3.42-3.47,3.71,1.55,.15,3.71,1.43,3.71,3.93,0,2.74-2.32,4.7-6,4.7-2.85,0-4.95-1.16-6.03-2.62l1.51-1.87Z"></path>
      <path d="M37.72,32.58c1.98,0,3.51,.73,4.59,1.79l-1.31,2.16c-.84-.9-1.75-1.43-3.28-1.43-2.65,0-4.21,2.5-4.21,5.33,0,.17,0,.32,.02,.46,.72-1.09,2.39-2.25,4.28-2.25,2.87,0,5.33,1.77,5.33,5.21,0,3.01-2.32,5.43-5.88,5.43-4.69,0-6.58-3.85-6.58-8.34s2.42-8.36,7.03-8.36Zm-.67,8.49c-1.36,0-2.68,.75-3.49,1.92,.17,1.75,1.1,3.78,3.56,3.78,2.1,0,3.2-1.5,3.2-2.81,0-1.99-1.53-2.89-3.28-2.89Z"></path>
      <path d="M51.45,32.58c4.47,0,6.38,4.27,6.38,8.34s-1.91,8.37-6.38,8.37-6.38-4.29-6.38-8.37,1.91-8.34,6.38-8.34Zm0,2.52c-2.61,0-3.54,2.74-3.54,5.82s.93,5.84,3.54,5.84,3.54-2.76,3.54-5.84-.93-5.82-3.54-5.82Z"></path>
      <path d="M61.73,31.02c1.34,0,2.42,1.14,2.42,2.5s-1.08,2.47-2.42,2.47-2.44-1.12-2.44-2.47,1.1-2.5,2.44-2.5Zm0,1.24c-.67,0-1.24,.56-1.24,1.26s.57,1.26,1.24,1.26,1.22-.58,1.22-1.26-.53-1.26-1.22-1.26Z"></path>
    </g>
  </symbol>
</svg>